<svg width="14" height="14" viewBox="0 0 14 14" fill="none" xmlns="http://www.w3.org/2000/svg">
  <path d="M6.40919 0.307964C6.57999 -0.102683 7.16171 -0.102684 7.33251 0.307962L8.86959 4.00356C8.9416 4.17667 9.1044 4.29496 9.2913 4.30994L13.281 4.62979C13.7243 4.66534 13.9041 5.21859 13.5663 5.50792L10.5266 8.11178C10.3842 8.23376 10.322 8.42515 10.3655 8.60752L11.2942 12.5008C11.3974 12.9334 10.9268 13.2753 10.5472 13.0435L7.13148 10.9572C6.97147 10.8595 6.77023 10.8595 6.61022 10.9572L3.19448 13.0435C2.81493 13.2753 2.3443 12.9334 2.4475 12.5008L3.37619 8.60752C3.41969 8.42515 3.3575 8.23376 3.21511 8.11178L0.175376 5.50793C-0.162392 5.21859 0.0173699 4.66534 0.460697 4.6298L4.4504 4.30994C4.6373 4.29496 4.8001 4.17667 4.87211 4.00356L6.40919 0.307964Z" fill="#343839" />
</svg>
