<svg xmlns="http://www.w3.org/2000/svg" width="470" height="470" fill="none" viewBox="0 0 470 470"><mask id="path-1-inside-1_90_250" fill="#fff"><path d="M389.97 188.658C386.681 85.64 303.206 2.505 199.84 0c-2.662 0-4.855 2.035-4.855 4.697l-.157 69.2c0 3.445-2.662 6.106-6.108 6.263C85.668 83.29 2.506 166.895 0 270.227c0 2.661 2.036 4.853 4.698 4.853l69.067.156c3.446 0 6.108 2.662 6.265 6.106C83.319 384.36 166.951 467.495 270.16 470c2.662 0 4.855-2.035 4.855-4.697l.157-69.2c0-3.445 2.662-6.106 6.108-6.263 103.052-3.288 186.214-86.892 188.72-190.067 0-2.661-2.036-4.853-4.698-4.853l-69.067-.157c-3.446 0-6.108-2.661-6.265-6.105M268.281 389.37c-58.574-3.444-105.559-51.039-107.751-109.906-.157-2.505-2.193-4.541-4.699-4.541l-68.91-.156c-3.602 0-6.421-2.975-6.265-6.576 3.446-58.554 51.057-105.523 109.944-107.715 2.506-.156 4.542-2.192 4.542-4.697l.156-69.043c0-3.601 2.976-6.42 6.578-6.263 58.574 3.444 105.558 51.039 107.751 109.907.156 2.505 2.192 4.54 4.698 4.54l68.911.157c3.602 0 6.421 2.974 6.264 6.575-3.445 60.12-53.405 107.872-114.328 107.872l-.157 73.584c-.157 3.601-3.132 6.419-6.734 6.262"/></mask><path fill="url(#paint0_linear_90_250)" fill-opacity="0.3" stroke="url(#paint1_linear_90_250)" stroke-opacity="0.5" stroke-width="2" d="M389.97 188.658C386.681 85.64 303.206 2.505 199.84 0c-2.662 0-4.855 2.035-4.855 4.697l-.157 69.2c0 3.445-2.662 6.106-6.108 6.263C85.668 83.29 2.506 166.895 0 270.227c0 2.661 2.036 4.853 4.698 4.853l69.067.156c3.446 0 6.108 2.662 6.265 6.106C83.319 384.36 166.951 467.495 270.16 470c2.662 0 4.855-2.035 4.855-4.697l.157-69.2c0-3.445 2.662-6.106 6.108-6.263 103.052-3.288 186.214-86.892 188.72-190.067 0-2.661-2.036-4.853-4.698-4.853l-69.067-.157c-3.446 0-6.108-2.661-6.265-6.105ZM268.281 389.37c-58.574-3.444-105.559-51.039-107.751-109.906-.157-2.505-2.193-4.541-4.699-4.541l-68.91-.156c-3.602 0-6.421-2.975-6.265-6.576 3.446-58.554 51.057-105.523 109.944-107.715 2.506-.156 4.542-2.192 4.542-4.697l.156-69.043c0-3.601 2.976-6.42 6.578-6.263 58.574 3.444 105.558 51.039 107.751 109.907.156 2.505 2.192 4.54 4.698 4.54l68.911.157c3.602 0 6.421 2.974 6.264 6.575-3.445 60.12-53.405 107.872-114.328 107.872l-.157 73.584c-.157 3.601-3.132 6.419-6.734 6.262Z" mask="url(#path-1-inside-1_90_250)"/><mask id="path-2-inside-2_90_250" fill="#fff"><path fill-rule="evenodd" d="M192.938 193.348c0-9.473 10.156-15.479 18.457-10.913l76.659 42.163c8.604 4.732 8.604 17.094 0 21.826l-76.659 42.163c-8.301 4.565-18.457-1.44-18.457-10.913z" clip-rule="evenodd"/></mask><path fill="url(#paint2_linear_90_250)" fill-opacity="0.3" fill-rule="evenodd" stroke="url(#paint3_linear_90_250)" stroke-opacity="0.5" stroke-width="2" d="M192.938 193.348c0-9.473 10.156-15.479 18.457-10.913l76.659 42.163c8.604 4.732 8.604 17.094 0 21.826l-76.659 42.163c-8.301 4.565-18.457-1.44-18.457-10.913z" clip-rule="evenodd" mask="url(#path-2-inside-2_90_250)"/><defs><linearGradient id="paint0_linear_90_250" x1="235" x2="235" y1="0" y2="470" gradientUnits="userSpaceOnUse"><stop stop-color="#fff" stop-opacity="0.5"/><stop offset="1" stop-color="#fff"/></linearGradient><linearGradient id="paint1_linear_90_250" x1="235" x2="235" y1="0" y2="470" gradientUnits="userSpaceOnUse"><stop stop-color="#fff" stop-opacity="0"/><stop offset="1" stop-color="#fff"/></linearGradient><linearGradient id="paint2_linear_90_250" x1="243.722" x2="243.722" y1="180.875" y2="290.146" gradientUnits="userSpaceOnUse"><stop offset="0.147231" stop-color="#fff"/><stop offset="0.42761" stop-color="#fff" stop-opacity="0.5"/><stop offset="1" stop-color="#1600FD" stop-opacity="0"/></linearGradient><linearGradient id="paint3_linear_90_250" x1="243.722" x2="243.722" y1="180.875" y2="290.146" gradientUnits="userSpaceOnUse"><stop stop-color="#fff" stop-opacity="0"/><stop offset="1" stop-color="#fff"/></linearGradient></defs></svg>