<svg xmlns="http://www.w3.org/2000/svg" width="199" height="60" fill="none" viewBox="0 0 199 60"><path fill="#E60000" d="M49.783 24.084C49.363 10.933 38.707.32 25.512 0c-.34 0-.62.26-.62.6l-.02 8.834c0 .44-.34.78-.78.8C10.936 10.632.32 21.305 0 34.496c0 .34.26.62.6.62l8.817.02c.44 0 .78.34.8.78.42 13.15 11.096 23.763 24.272 24.083.34 0 .62-.26.62-.6l.02-8.834c0-.44.34-.78.779-.8C49.064 49.348 59.68 38.675 60 25.504c0-.34-.26-.62-.6-.62l-8.817-.02c-.44 0-.78-.34-.8-.78M34.25 49.707c-7.478-.44-13.476-6.516-13.756-14.03a.61.61 0 0 0-.6-.58l-8.797-.02a.8.8 0 0 1-.8-.84c.44-7.475 6.518-13.47 14.036-13.75.32-.02.58-.28.58-.6l.02-8.814a.8.8 0 0 1 .84-.8c7.477.44 13.475 6.516 13.755 14.03.02.32.28.58.6.58l8.797.02a.8.8 0 0 1 .8.84c-.44 7.675-6.818 13.77-14.596 13.77l-.02 9.394c-.02.46-.4.82-.86.8"/><path fill="#fff" fill-rule="evenodd" d="M24.63 24.683a1.59 1.59 0 0 1 2.357-1.393l9.786 5.382c1.098.604 1.098 2.182 0 2.787l-9.786 5.382a1.59 1.59 0 0 1-2.357-1.393z" clip-rule="evenodd"/><path fill="#fff" d="M63 26.905q0-1.137.43-2.135a5.6 5.6 0 0 1 1.16-1.74 5.6 5.6 0 0 1 1.73-1.189 5.2 5.2 0 0 1 2.11-.434h8.308v3.67h-8.309a1.78 1.78 0 0 0-1.288.537q-.24.243-.378.575-.14.333-.14.716 0 .384.14.73.139.331.378.587.253.243.581.384.33.14.707.14h3.624q1.124 0 2.109.436a5.2 5.2 0 0 1 1.73 1.176 5.3 5.3 0 0 1 1.161 1.752q.43.998.43 2.136 0 1.137-.43 2.135a5.5 5.5 0 0 1-1.161 1.752 5.5 5.5 0 0 1-1.73 1.176q-.986.435-2.109.435H64.01v-3.67h8.043a1.78 1.78 0 0 0 1.276-.524 1.84 1.84 0 0 0 .53-1.304 1.8 1.8 0 0 0-.14-.717 1.7 1.7 0 0 0-.39-.575q-.24-.256-.569-.397a1.8 1.8 0 0 0-.707-.14H68.43q-1.124 0-2.108-.435a5.7 5.7 0 0 1-1.73-1.176 5.8 5.8 0 0 1-1.162-1.752 5.4 5.4 0 0 1-.43-2.149m23.056 12.839a5.9 5.9 0 0 1-2.349-.473 6.3 6.3 0 0 1-1.931-1.317 6.4 6.4 0 0 1-1.3-1.957 6.1 6.1 0 0 1-.468-2.378v-4.067h-1.68v-3.478h1.68v-5.473h3.434v5.473h5.228v3.478h-5.228v4.067q0 .55.202 1.036.202.473.556.83.354.36.833.576.48.205 1.023.205h2.614v3.478zm8.005 0h-3.447V26.05h.834l1.136 1.624a5.9 5.9 0 0 1 1.894-1.177 5.9 5.9 0 0 1 2.197-.422h3.043v3.478h-3.043a2.6 2.6 0 0 0-1.023.205 2.58 2.58 0 0 0-1.389 1.407 2.7 2.7 0 0 0-.202 1.035zm12.387-3.35q.201.064.404.09.202.012.404.012.505 0 .972-.14a3.3 3.3 0 0 0 1.604-1.036q.328-.384.53-.844l2.525 2.57q-.48.69-1.111 1.24a6.7 6.7 0 0 1-1.351.934q-.72.384-1.528.575a6.6 6.6 0 0 1-1.641.205 6.8 6.8 0 0 1-2.69-.537 6.9 6.9 0 0 1-2.197-1.496 7.1 7.1 0 0 1-1.477-2.276q-.543-1.33-.543-2.916 0-1.624.543-2.967a6.9 6.9 0 0 1 1.477-2.289 6.8 6.8 0 0 1 4.887-1.995q.846 0 1.654.205a6.8 6.8 0 0 1 1.528.588q.733.384 1.363.946.632.55 1.112 1.24zm1.767-7.2a2 2 0 0 0-.479-.115 4 4 0 0 0-.48-.025q-.708 0-1.339.268a3.2 3.2 0 0 0-1.085.742 3.6 3.6 0 0 0-.72 1.176 4.2 4.2 0 0 0-.265 1.535q0 .192.012.435.026.243.063.498.051.243.114.474t.164.409zm19.433 10.55h-.834l-1.338-1.88q-.493.448-1.048.844a8 8 0 0 1-1.149.678 7.3 7.3 0 0 1-1.25.448q-.631.165-1.288.166a7.4 7.4 0 0 1-2.689-.486 6.5 6.5 0 0 1-2.197-1.407q-.935-.933-1.478-2.276t-.543-3.056q0-1.599.543-2.928a7 7 0 0 1 1.478-2.302 6.7 6.7 0 0 1 2.197-1.484 6.8 6.8 0 0 1 2.689-.537q.657 0 1.301.166.643.167 1.25.46.606.295 1.149.691.555.397 1.035.857l1.338-1.624h.834zm-3.473-6.97q0-.715-.277-1.38a3.8 3.8 0 0 0-.733-1.19 3.5 3.5 0 0 0-1.098-.83 2.85 2.85 0 0 0-1.326-.32 3.7 3.7 0 0 0-1.338.243q-.62.242-1.086.716a3.4 3.4 0 0 0-.72 1.176q-.265.691-.265 1.586t.265 1.598q.266.69.72 1.164.467.473 1.086.716.63.243 1.338.243.707 0 1.326-.307.632-.32 1.098-.83.468-.525.733-1.19.277-.678.277-1.394m23.309 6.969h-3.435V31.05q0-.36-.138-.678a1.68 1.68 0 0 0-.922-.934 1.6 1.6 0 0 0-.669-.14q-.354 0-.67.14a1.7 1.7 0 0 0-.542.371 2 2 0 0 0-.367.563q-.126.32-.126.678v8.695h-3.447V31.05q0-.36-.139-.678a1.66 1.66 0 0 0-.922-.934 1.6 1.6 0 0 0-.669-.14q-.353 0-.669.14a1.7 1.7 0 0 0-.543.371q-.227.243-.366.563-.126.32-.126.678v8.695h-3.447V26.05h.833l.934 1.048a5.5 5.5 0 0 1 1.579-.946 4.9 4.9 0 0 1 1.805-.345q.948 0 1.844.358.909.358 1.591 1.24.315-.435.719-.742.405-.306.846-.498.455-.192.935-.269.48-.09.947-.09 1.072 0 2.007.41a5.1 5.1 0 0 1 1.642 1.125 5.22 5.22 0 0 1 1.515 3.708zm16.73-18.337-5.947 18.337h-3.624l-5.922-18.337h4.117l3.611 12.238 3.624-12.238zm5.442.92q0 .486-.189.908a2.3 2.3 0 0 1-.493.742q-.316.306-.745.499-.417.18-.896.179-.48 0-.909-.18a2.6 2.6 0 0 1-.733-.498 2.6 2.6 0 0 1-.492-.742 2.3 2.3 0 0 1-.177-.908q0-.472.177-.895.189-.435.492-.741.316-.32.733-.5.429-.19.909-.191.48 0 .896.192.43.18.745.498.316.307.493.742.189.423.189.895m-.593 17.417h-3.473V26.05h3.473zm16.174-6.969q0 1.611-.543 2.941a7.1 7.1 0 0 1-1.477 2.29 6.6 6.6 0 0 1-2.197 1.47q-1.25.525-2.69.524a6.8 6.8 0 0 1-2.689-.537 6.9 6.9 0 0 1-2.197-1.496 7.1 7.1 0 0 1-1.477-2.276q-.543-1.33-.543-2.916V20.6h3.459v6.394q.279-.358.67-.64.404-.28.858-.46a5.4 5.4 0 0 1 .96-.268q.492-.103.959-.103 1.44 0 2.69.55a6.6 6.6 0 0 1 2.197 1.51 7.2 7.2 0 0 1 1.477 2.3q.543 1.318.543 2.89m-3.472 0q0-.794-.278-1.47a3.6 3.6 0 0 0-.732-1.19 3.4 3.4 0 0 0-1.099-.78 3.2 3.2 0 0 0-1.326-.281q-.707 0-1.338.32a3.6 3.6 0 0 0-1.086.83 3.8 3.8 0 0 0-.732 1.19 3.7 3.7 0 0 0-.265 1.38q0 .795.265 1.471.266.679.732 1.177.468.5 1.086.793a3.25 3.25 0 0 0 1.338.281q.708 0 1.326-.281a3.54 3.54 0 0 0 1.831-1.97q.278-.676.278-1.47m10.77 3.621q.203.064.404.09.203.012.404.012.505 0 .973-.14.466-.14.871-.397.417-.268.732-.64.329-.383.53-.843l2.526 2.57q-.48.69-1.111 1.24a6.74 6.74 0 0 1-2.879 1.51 6.6 6.6 0 0 1-1.642.204 6.8 6.8 0 0 1-2.689-.537 6.9 6.9 0 0 1-2.197-1.496 7.1 7.1 0 0 1-1.477-2.276q-.543-1.33-.543-2.916 0-1.624.543-2.967t1.477-2.289a6.8 6.8 0 0 1 2.197-1.47 6.9 6.9 0 0 1 2.689-.525q.847 0 1.654.205a6.8 6.8 0 0 1 1.528.588 6.8 6.8 0 0 1 1.364.946q.631.55 1.111 1.24zm1.768-7.2q-.24-.09-.48-.115a4 4 0 0 0-.48-.025q-.706 0-1.338.268-.62.256-1.086.742a3.6 3.6 0 0 0-.72 1.176 4.2 4.2 0 0 0-.265 1.535q0 .192.013.435.026.243.063.498.05.243.114.474.063.23.164.409z"/></svg>