<svg xmlns="http://www.w3.org/2000/svg" width="40" height="40" fill="none" viewBox="0 0 40 40"><g clip-path="url(#clip0_184_891)"><foreignObject width="58.6221" height="49.6037" x="-9.21118" y="-5.2"><div xmlns="http://www.w3.org/1999/xhtml" style="backdrop-filter:blur(6px);clip-path:url(#bgblur_1_184_891_clip_path);height:100%;width:100%"/></foreignObject><g data-figma-bg-blur-radius="12"><mask id="path-1-inside-1_184_891" fill="#fff"><path d="M37.378 25.009c0 .96.045 1.909-.011 2.847-.033.68-.614 1.106-1.373 1.117-1.395.011-2.813.01-4.32.01.369.938.737 1.765 1.016 2.625.067.2-.09.59-.268.713-.268.19-.57.034-.714-.29-.056-.122-.1-.234-.156-.357-.313-.76-.625-1.507-.915-2.277-.112-.313-.257-.424-.603-.424q-9.929.016-19.856 0c-.324 0-.492.078-.615.401-.301.838-.658 1.653-.993 2.479-.145.357-.357.648-.792.48-.446-.167-.39-.524-.257-.882.324-.803.647-1.608.993-2.478h-4.14c-1.116 0-1.585-.47-1.585-1.597V25.01zm-21.519 1.083c-.413 0-.781.1-.77.592.01.48.379.524.758.524 1.407-.011 2.825 0 4.23 0h4.242c.39 0 .792-.022.792-.535 0-.491-.38-.581-.781-.581zM35.871 6.8c1.071 0 1.54.47 1.54 1.519v15.496c-11.54.01-23.037.01-34.61.01V8.33c0-1.06.457-1.529 1.54-1.529zM17.644 19.114c1.931-1.116 3.762-2.177 5.682-3.282-1.931-1.116-3.784-2.177-5.682-3.282z"/></mask><path fill="#E60000" d="M37.378 25.009c0 .96.045 1.909-.011 2.847-.033.68-.614 1.106-1.373 1.117-1.395.011-2.813.01-4.32.01.369.938.737 1.765 1.016 2.625.067.2-.09.59-.268.713-.268.19-.57.034-.714-.29-.056-.122-.1-.234-.156-.357-.313-.76-.625-1.507-.915-2.277-.112-.313-.257-.424-.603-.424q-9.929.016-19.856 0c-.324 0-.492.078-.615.401-.301.838-.658 1.653-.993 2.479-.145.357-.357.648-.792.48-.446-.167-.39-.524-.257-.882.324-.803.647-1.608.993-2.478h-4.14c-1.116 0-1.585-.47-1.585-1.597V25.01zm-21.519 1.083c-.413 0-.781.1-.77.592.01.48.379.524.758.524 1.407-.011 2.825 0 4.23 0h4.242c.39 0 .792-.022.792-.535 0-.491-.38-.581-.781-.581zM35.871 6.8c1.071 0 1.54.47 1.54 1.519v15.496c-11.54.01-23.037.01-34.61.01V8.33c0-1.06.457-1.529 1.54-1.529zM17.644 19.114c1.931-1.116 3.762-2.177 5.682-3.282-1.931-1.116-3.784-2.177-5.682-3.282z"/><path fill="#E60000" d="M37.378 25.009h1v-1h-1zm-.011 2.847-.998-.06v.01zm-1.373 1.117.008 1h.007zm-4.32.01v-1h-1.466l.536 1.366zm1.016 2.625-.951.308.002.006zm-.268.713-.567-.824-.011.008zm-.714-.29.912-.409-.002-.004zm-.156-.357-.925.38.007.017.007.017zm-.915-2.277-.942.336.003.008.003.008zm-.603-.424v-1h-.002zm-19.856 0 .001-1h-.002zm-.615.401-.935-.354-.003.008-.003.008zm-.993 2.479.927.376zm-.792.48.359-.933-.008-.003zm-.257-.882-.927-.373-.005.011-.004.011zm.993-2.478.93.37.544-1.37H8.514zM2.79 27.376h-1zm0-2.367v-1h-1v1zm12.3 1.675-1 .022v.001zm.758.524v1h.008zm8.472 0v1zm.792-.535h1zm12.3-2.858v1l1-.001v-1zm-34.61.01h-1v1h1zm0-15.496h-1zm14.843 10.785h-1v1.734l1.5-.868zm5.682-3.282.499.867 1.502-.865-1.5-.867zm-5.682-3.282.504-.864-1.504-.876v1.74zm19.734 12.459h-1c0 1.026.044 1.887-.01 2.787l.999.06.998.059c.058-.975.013-2.011.013-2.906zm-.011 2.847-.999-.05c-.001.031-.008.044-.01.046a.1.1 0 0 1-.025.029c-.04.031-.15.089-.354.092l.015 1 .015 1c1.094-.017 2.289-.688 2.357-2.068zm-1.373 1.117-.008-1c-1.39.011-2.804.01-4.311.01v2c1.505 0 2.927.001 4.327-.01zm-4.32.01-.93.366c.39.994.728 1.745.995 2.567l.951-.308.951-.31c-.29-.896-.69-1.798-1.036-2.68zm1.016 2.625-.949.314a.6.6 0 0 1-.032-.256c.003-.028.008-.037.006-.032l.006-.01c.004-.005.043-.064.134-.127l.567.825.566.823c.328-.225.507-.568.593-.792.08-.208.202-.627.058-1.06zm-.268.713-.578-.816a.61.61 0 0 1 .577-.052c.154.068.197.165.2.17l-.913.408-.913.41c.147.328.414.664.821.843.45.198.965.15 1.384-.146zm-.714-.29.91-.413-.07-.159-.086-.199-.91.414-.91.414.068.158.087.2zm-.156-.357.924-.38c-.315-.767-.62-1.497-.904-2.25l-.935.353-.936.352c.296.788.616 1.554.926 2.306zm-.915-2.277.941-.337c-.083-.232-.236-.565-.573-.806-.339-.242-.707-.281-.97-.281l-.001 1v1c.082 0-.04.017-.193-.092-.15-.107-.175-.228-.146-.148zm-.603-.424-.002-1q-9.926.016-19.853 0l-.002 1-.001 1q9.93.016 19.86 0zm-19.856 0v-1c-.217 0-.568.02-.905.226-.36.22-.542.549-.645.82l.935.355.935.355c.02-.052-.017.075-.18.176-.143.087-.248.068-.14.068zm-.615.401-.94-.338c-.293.813-.63 1.58-.98 2.441l.927.376.927.375c.32-.791.697-1.654 1.007-2.515zm-.993 2.479-.926-.377a1 1 0 0 1-.044.094c-.006.009.015-.028.074-.073a.57.57 0 0 1 .28-.112.4.4 0 0 1 .183.015l-.359.933-.359.934c.495.19 1.033.154 1.473-.184.348-.268.52-.644.605-.854zm-.792.48.351-.936a.4.4 0 0 1 .15.115.6.6 0 0 1 .14.291c.013.077.002.12.004.107a1 1 0 0 1 .035-.108l-.937-.35-.936-.352c-.073.195-.21.59-.14 1.024.04.244.144.495.337.714a1.6 1.6 0 0 0 .645.431zm-.257-.882.928.374c.323-.804.648-1.61.995-2.483l-.93-.37-.929-.368c-.345.868-.668 1.67-.991 2.474zm.993-2.478v-1h-4.14v2h4.14zm-4.14 0v-1c-.214 0-.348-.023-.426-.047a.3.3 0 0 1-.075-.033h-.001v-.001l-.001-.001-.006-.01a.3.3 0 0 1-.028-.07 1.6 1.6 0 0 1-.048-.435h-2c0 .672.135 1.393.665 1.926.53.535 1.251.67 1.92.67zM2.79 27.376h1V25.01h-2v2.367zm0-2.367v1h34.589v-2H2.788zm13.07 1.083v-1c-.245 0-.675.021-1.063.257-.493.3-.72.81-.707 1.357l1-.022 1-.023c0 .002 0 .073-.05.172a.56.56 0 0 1-.205.225c-.063.038-.103.043-.09.04a1 1 0 0 1 .115-.006zm-.77.592-1 .023c.006.246.06.515.207.767.152.26.365.435.583.545.379.19.792.19.968.19v-2c-.08 0-.123-.004-.145-.007-.024-.003.014-.002.079.031a.6.6 0 0 1 .24.23.45.45 0 0 1 .067.197zm.758.524.008 1c1.402-.011 2.805 0 4.223 0v-2c-1.395 0-2.828-.011-4.238 0zm4.23 0v1h4.242v-2h-4.241zm4.242 0v1c.155 0 .582.01.966-.169.227-.106.456-.283.619-.558.157-.266.207-.551.207-.808h-2s0-.023.009-.06a.6.6 0 0 1 .319-.386c.063-.03.096-.028.06-.024a2 2 0 0 1-.18.005zm.792-.535h1c0-.251-.049-.52-.186-.773a1.45 1.45 0 0 0-.553-.567c-.386-.223-.809-.241-1.042-.241v2c.067 0 .104.004.12.007s-.02 0-.08-.035a.55.55 0 0 1-.204-.214.4.4 0 0 1-.055-.177zm-.781-.581v-1h-8.47v2h8.47zM35.87 6.8v1c.416 0 .487.094.47.077-.02-.02.07.042.07.442h2c0-.65-.142-1.347-.664-1.864-.52-.514-1.218-.655-1.875-.655zm1.54 1.519h-1v15.496h2V8.319zm0 15.496v-1c-11.54.01-23.035.01-34.61.01v2c11.574 0 23.07 0 34.612-.01zm-34.61.01h1V8.33h-2v15.496zm0-15.496h1c0-.413.093-.476.072-.455s.045-.074.469-.074v-2c-.66 0-1.363.14-1.884.66s-.656 1.222-.656 1.87zM4.34 6.8v1h31.53v-2H4.34zm13.304 12.314.5.866c1.933-1.117 3.762-2.177 5.68-3.281l-.498-.867-.499-.866c-1.92 1.106-3.753 2.167-5.683 3.283zm5.682-3.282.5-.866c-1.936-1.12-3.782-2.175-5.678-3.28l-.504.864-.503.864c1.899 1.106 3.76 2.17 5.684 3.284zm-5.682-3.282h-1v6.564h2V12.55z" mask="url(#path-1-inside-1_184_891)"/></g></g><defs><clipPath id="bgblur_1_184_891_clip_path" transform="translate(9.211 5.2)"><path d="M37.378 25.009c0 .96.045 1.909-.011 2.847-.033.68-.614 1.106-1.373 1.117-1.395.011-2.813.01-4.32.01.369.938.737 1.765 1.016 2.625.067.2-.09.59-.268.713-.268.19-.57.034-.714-.29-.056-.122-.1-.234-.156-.357-.313-.76-.625-1.507-.915-2.277-.112-.313-.257-.424-.603-.424q-9.929.016-19.856 0c-.324 0-.492.078-.615.401-.301.838-.658 1.653-.993 2.479-.145.357-.357.648-.792.48-.446-.167-.39-.524-.257-.882.324-.803.647-1.608.993-2.478h-4.14c-1.116 0-1.585-.47-1.585-1.597V25.01zm-21.519 1.083c-.413 0-.781.1-.77.592.01.48.379.524.758.524 1.407-.011 2.825 0 4.23 0h4.242c.39 0 .792-.022.792-.535 0-.491-.38-.581-.781-.581zM35.871 6.8c1.071 0 1.54.47 1.54 1.519v15.496c-11.54.01-23.037.01-34.61.01V8.33c0-1.06.457-1.529 1.54-1.529zM17.644 19.114c1.931-1.116 3.762-2.177 5.682-3.282-1.931-1.116-3.784-2.177-5.682-3.282z"/></clipPath><clipPath id="clip0_184_891"><path fill="#fff" d="M2.8 6.8h34.6v25.6H2.8z"/></clipPath></defs></svg>